<?xml version="1.0" encoding="UTF-8" standalone="no"?>
<!-- Created with Inkscape (http://www.inkscape.org/) -->

<svg
   width="425"
   height="425"
   viewBox="0 0 112.44791 112.44792"
   version="1.1"
   id="svg1"
   inkscape:version="1.3 (0e150ed6c4, 2023-07-21)"
   sodipodi:docname="logo obrazek.svg"
   inkscape:export-filename="logo obrazek.png"
   inkscape:export-xdpi="96"
   inkscape:export-ydpi="96"
   xmlns:inkscape="http://www.inkscape.org/namespaces/inkscape"
   xmlns:sodipodi="http://sodipodi.sourceforge.net/DTD/sodipodi-0.dtd"
   xmlns="http://www.w3.org/2000/svg"
   xmlns:svg="http://www.w3.org/2000/svg">
  <sodipodi:namedview
     id="namedview1"
     pagecolor="#ffffff"
     bordercolor="#000000"
     borderopacity="0.25"
     inkscape:showpageshadow="2"
     inkscape:pageopacity="0.0"
     inkscape:pagecheckerboard="0"
     inkscape:deskcolor="#d1d1d1"
     inkscape:document-units="px"
     inkscape:zoom="0.97890839"
     inkscape:cx="21.452467"
     inkscape:cy="502.08988"
     inkscape:window-width="1920"
     inkscape:window-height="991"
     inkscape:window-x="-9"
     inkscape:window-y="-9"
     inkscape:window-maximized="1"
     inkscape:current-layer="layer1" />
  <defs
     id="defs1" />
  <g
     inkscape:label="Warstwa 1"
     inkscape:groupmode="layer"
     id="layer1">
    <g
       inkscape:label="Rendered Gears"
       transform="matrix(0.7192146,0,0,0.71921764,56.009057,56.223957)"
       id="g22"
       style="fill:none;fill-opacity:1;stroke:#ff6600;stroke-width:5.51816044;stroke-dasharray:none;stroke-opacity:1">
      <path
         style="fill:none;fill-opacity:1;stroke:#ff6600;stroke-width:5.51816044;stroke-dasharray:none;stroke-opacity:1"
         d="m 54.4066,-6.05687 6.2311,-0.69369 2.1809,0.14806 8.6869,3.19671 V 3.40579 L 62.8186,6.6025 60.6377,6.75056 54.4066,6.05687 52.1664,16.5959 l 5.9746,1.9007 1.9321,1.0223 6.6357,6.4537 -2.7705,6.2227 -9.2361,-0.613 -2.0526,-0.7518 -5.4103,-3.1681 -6.3331,8.7167 4.685,4.1665 1.3493,1.7198 3.437,8.5946 -5.062,4.5579 -8.1883,-4.3166 -1.5693,-1.5217 -3.6539,-5.0948 -9.331,5.3872 2.5853,5.7119 0.5331,2.1198 -0.3559,9.2496 -6.4782,2.1049 L 13.1327,61.7843 12.3179,59.7559 11.0521,53.6154 0.33665,54.7416 0.37521,61.0112 0,63.1646 l -4.08723,8.3052 -6.77427,-0.712 -2.2712,-8.9735 0.0808,-2.1844 1.3412,-6.1245 -10.2472,-3.3295 -2.5148,5.7432 -1.2187,1.8146 -7.1118,5.9248 -5.899,-3.4058 1.575,-9.1214 0.9622,-1.9628 3.7163,-5.0495 -8.007,-7.2095 -4.6334,4.2238 -1.8514,1.1621 -8.9068,2.5198 -4.0037,-5.5107 5.1488,-7.6922 1.6774,-1.4017 5.4488,-3.1013 -4.3824,-9.843 -5.9507,1.974 -2.164,0.3086 -9.1617,-1.3207 -1.4162,-6.6627 7.8324,-4.933 2.1024,-0.59825 6.2393,-0.617 v -10.7745 l -6.2393,-0.617 -2.1024,-0.59825 -7.8324,-4.933 1.4162,-6.6627 9.1617,-1.3207 2.164,0.3086 5.9507,1.974 4.3824,-9.843 -5.4488,-3.1013 -1.6774,-1.4017 -5.1488,-7.6922 4.0037,-5.5107 8.9068,2.5198 1.8514,1.1621 4.6334,4.2238 8.007,-7.2095 -3.7163,-5.0495 -0.9622,-1.9628 -1.575,-9.1214 5.899,-3.4058 7.1118,5.9248 1.2187,1.8146 2.5148,5.7432 10.2472,-3.3295 -1.3412,-6.1245 -0.0808,-2.1844 2.2712,-8.9735 6.77427,-0.712 4.08723,8.3052 0.37521,2.1534 -0.03856,6.2696 10.71545,1.1262 1.2658,-6.1405 0.8148,-2.0284 5.7246,-7.2739 6.4782,2.1049 0.3559,9.2496 -0.5331,2.1198 -2.5853,5.7119 9.331,5.3872 3.6539,-5.0948 1.5693,-1.5217 8.1883,-4.3166 5.062,4.5579 -3.437,8.5946 -1.3493,1.7198 -4.685,4.1665 6.3331,8.7167 5.4103,-3.1681 2.0526,-0.7518 9.2361,-0.613 2.7705,6.2227 -6.6357,6.4537 -1.9321,1.0223 -5.9746,1.9007 z"
         id="path21" />
      <path
         id="path22"
         d="M 39.6875,0 A 39.6875,39.6875 0 0 1 0,39.6875 39.6875,39.6875 0 0 1 -39.6875,0 39.6875,39.6875 0 0 1 0,-39.6875 39.6875,39.6875 0 0 1 39.6875,0 Z"
         style="stroke:#ff6600;stroke-opacity:1;stroke-width:5.51816044;stroke-dasharray:none" />
    </g>
  </g>
</svg>
